<svg height="100%" width="100%" id="svg" viewBox="0 0 1440 700" xmlns="http://www.w3.org/2000/svg" preserveAspectRatio="none" class="transition duration-300 ease-in-out delay-150"><path d="M 0,700 C 0,700 0,175 0,175 C 144.2666666666667,157 288.5333333333334,139 447,151 C 605.4666666666666,163 778.1333333333334,205 946,214 C 1113.8666666666666,223 1276.9333333333334,199 1440,175 C 1440,175 1440,700 1440,700 Z" stroke="none" stroke-width="0" fill="#11529366" class="transition-all duration-300 ease-in-out delay-150"></path><path d="M 0,700 C 0,700 0,350 0,350 C 145.7333333333333,334 291.4666666666666,318 468,335 C 644.5333333333334,352 851.8666666666668,402 1019,410 C 1186.1333333333332,418 1313.0666666666666,384 1440,350 C 1440,350 1440,700 1440,700 Z" stroke="none" stroke-width="0" fill="#11529388" class="transition-all duration-300 ease-in-out delay-150"></path><path d="M 0,700 C 0,700 0,525 0,525 C 154.13333333333333,492.20000000000005 308.26666666666665,459.40000000000003 447,463 C 585.7333333333333,466.59999999999997 709.0666666666668,506.6 872,523 C 1034.9333333333332,539.4 1237.4666666666667,532.2 1440,525 C 1440,525 1440,700 1440,700 Z" stroke="none" stroke-width="0" fill="#115293ff" class="transition-all duration-300 ease-in-out delay-150"></path></svg>